# xmcd
#
# Track frame offsets: 
#        150
#        18077
#        36395
#        55885
#        70802
#        88337
#        108515
#        126640
#        148132
#        165620
#        183312
#        200645
#        221007
#        242662
#        261812
#        280355
#        299252
#
# Disc length: 4235 seconds
#
# Revision: 4
# Processed by: cddbd v1.5.2PL0 Copyright (c) Steve Scherf et al.
# Submitted via: ExactAudioCopyFreeDBPlugin 1.0
#
DISCID=12108911
DTITLE=Baby Bash - Tha Smokin' Nephew
DYEAR=2003
DGENRE=R&B
TTITLE0=Suga Suga
TTITLE1=Yeh Suh!
TTITLE2=Weed Hand
TTITLE3=Shorty Doowop
TTITLE4=On Tha Curb
TTITLE5=Sexy Eyes (Da Da Da Da)
TTITLE6=Image Of Pimp
TTITLE7=Early In The Morning
TTITLE8=Feeling Me
TTITLE9=Oh Wow
TTITLE10=Changed My Life
TTITLE11=Stay Perkin'
TTITLE12=Pollution
TTITLE13=Menage A Trois
TTITLE14=Tha Chop
TTITLE15=Don't Disrespect My Mind
TTITLE16=Suga Suga (remix)
EXTD=YEAR: 2003
EXTT0=
EXTT1=
EXTT2=
EXTT3=
EXTT4=
EXTT5=
EXTT6=
EXTT7=
EXTT8=
EXTT9=
EXTT10=
EXTT11=
EXTT12=
EXTT13=
EXTT14=
EXTT15=
EXTT16=
PLAYORDER=
